<svg width="25" height="25" viewBox="0 0 25 25" fill="none" xmlns="http://www.w3.org/2000/svg">
<path d="M18.69 18.2227H8.03999C7.04999 18.2227 6.09999 17.8027 5.42999 17.0727C4.75999 16.3427 4.42 15.3626 4.5 14.3727L5.33 4.41266C5.36 4.10266 5.24999 3.80266 5.03999 3.57266C4.82999 3.34266 4.54 3.22266 4.23 3.22266H2.5C2.09 3.22266 1.75 2.88266 1.75 2.47266C1.75 2.06266 2.09 1.72266 2.5 1.72266H4.24001C4.97001 1.72266 5.65999 2.03265 6.14999 2.56265C6.41999 2.86265 6.62 3.21266 6.73 3.60266H19.22C20.23 3.60266 21.16 4.00266 21.84 4.72266C22.51 5.45266 22.85 6.40266 22.77 7.41266L22.23 14.9127C22.12 16.7427 20.52 18.2227 18.69 18.2227ZM6.78 5.09265L6 14.4926C5.95 15.0726 6.14 15.6226 6.53 16.0526C6.92 16.4826 7.45999 16.7126 8.03999 16.7126H18.69C19.73 16.7126 20.67 15.8327 20.75 14.7927L21.29 7.29266C21.33 6.70266 21.14 6.14267 20.75 5.73267C20.36 5.31267 19.82 5.08264 19.23 5.08264H6.78V5.09265Z" fill="white"/>
<path d="M16.75 23.2227C15.65 23.2227 14.75 22.3227 14.75 21.2227C14.75 20.1227 15.65 19.2227 16.75 19.2227C17.85 19.2227 18.75 20.1227 18.75 21.2227C18.75 22.3227 17.85 23.2227 16.75 23.2227ZM16.75 20.7227C16.47 20.7227 16.25 20.9427 16.25 21.2227C16.25 21.5027 16.47 21.7227 16.75 21.7227C17.03 21.7227 17.25 21.5027 17.25 21.2227C17.25 20.9427 17.03 20.7227 16.75 20.7227Z" fill="white"/>
<path d="M8.75 23.2227C7.65 23.2227 6.75 22.3227 6.75 21.2227C6.75 20.1227 7.65 19.2227 8.75 19.2227C9.85 19.2227 10.75 20.1227 10.75 21.2227C10.75 22.3227 9.85 23.2227 8.75 23.2227ZM8.75 20.7227C8.47 20.7227 8.25 20.9427 8.25 21.2227C8.25 21.5027 8.47 21.7227 8.75 21.7227C9.03 21.7227 9.25 21.5027 9.25 21.2227C9.25 20.9427 9.03 20.7227 8.75 20.7227Z" fill="white"/>
<path d="M21.5 9.22266H9.5C9.09 9.22266 8.75 8.88266 8.75 8.47266C8.75 8.06266 9.09 7.72266 9.5 7.72266H21.5C21.91 7.72266 22.25 8.06266 22.25 8.47266C22.25 8.88266 21.91 9.22266 21.5 9.22266Z" fill="white"/>
</svg>
