<svg width="24" height="25" viewBox="0 0 24 25" fill="none" xmlns="http://www.w3.org/2000/svg">
<path d="M7.68141 2.14697C4.241 2.14697 1.44141 4.94656 1.44141 8.38697V17.027C1.44141 20.4674 4.241 23.267 7.68141 23.267H16.3214C19.7618 23.267 22.5614 20.4674 22.5614 17.027V8.38697C22.5614 4.94656 19.7618 2.14697 16.3214 2.14697H7.68141ZM7.68141 3.10697H16.3214C19.2429 3.10697 21.6014 5.46546 21.6014 8.38697V17.027C21.6014 19.9485 19.2429 22.307 16.3214 22.307H7.68141C4.75989 22.307 2.40141 19.9485 2.40141 17.027V8.38697C2.40141 5.46546 4.75989 3.10697 7.68141 3.10697ZM17.7614 5.98697C17.5068 5.98697 17.2626 6.08812 17.0826 6.26815C16.9025 6.44818 16.8014 6.69236 16.8014 6.94697C16.8014 7.20158 16.9025 7.44576 17.0826 7.62579C17.2626 7.80583 17.5068 7.90697 17.7614 7.90697C18.016 7.90697 18.2602 7.80583 18.4402 7.62579C18.6203 7.44576 18.7214 7.20158 18.7214 6.94697C18.7214 6.69236 18.6203 6.44818 18.4402 6.26815C18.2602 6.08812 18.016 5.98697 17.7614 5.98697ZM12.0014 7.42697C9.09103 7.42697 6.72141 9.79659 6.72141 12.707C6.72141 15.6174 9.09103 17.987 12.0014 17.987C14.9118 17.987 17.2814 15.6174 17.2814 12.707C17.2814 9.79659 14.9118 7.42697 12.0014 7.42697ZM12.0014 8.38697C14.393 8.38697 16.3214 10.3154 16.3214 12.707C16.3214 15.0985 14.393 17.027 12.0014 17.027C9.60985 17.027 7.68141 15.0985 7.68141 12.707C7.68141 10.3154 9.60985 8.38697 12.0014 8.38697Z" fill="#EDEDED"/>
</svg>
