<svg width="19.95" height="16.2" viewBox="0 0 25 25" fill="none" xmlns="http://www.w3.org/2000/svg">
<path d="M17.7997 9.87268V8.27269C17.7997 6.86877 17.2427 5.52221 16.2509 4.52855C15.2591 3.53489 13.9136 2.97533 12.5097 2.97268C11.8119 2.96556 11.1198 3.09814 10.474 3.36262C9.82828 3.6271 9.24199 4.01814 8.74969 4.51268C8.25288 5.00485 7.85838 5.59046 7.58892 6.23578C7.31947 6.8811 7.18038 7.57337 7.17969 8.27269V9.87268C6.30038 10.1882 5.54012 10.7679 5.00306 11.5323C4.466 12.2967 4.17841 13.2085 4.17969 14.1427V18.4327C4.18202 19.6206 4.6488 20.7604 5.4803 21.6088C6.31181 22.4571 7.4421 22.9466 8.62969 22.9727H16.2697C17.4747 22.9727 18.6305 22.4947 19.4835 21.6436C20.3365 20.7924 20.817 19.6377 20.8197 18.4327V14.1427C20.818 13.2064 20.527 12.2935 19.9863 11.5291C19.4457 10.7647 18.6819 10.1862 17.7997 9.87268ZM9.79969 5.57268C10.15 5.22198 10.5663 4.94418 11.0246 4.75537C11.4829 4.56656 11.974 4.47048 12.4697 4.47268C13.4794 4.47267 14.448 4.87239 15.1638 5.58446C15.8796 6.29653 16.2844 7.26303 16.2897 8.27269V9.60268H8.67969V8.25269C8.68823 7.2453 9.09437 6.28207 9.80969 5.57268H9.79969ZM19.3497 18.4327C19.3497 18.8309 19.2705 19.2251 19.1166 19.5924C18.9628 19.9597 18.7373 20.2926 18.4534 20.5719C18.1695 20.8511 17.8329 21.071 17.4631 21.2188C17.0933 21.3666 16.6978 21.4393 16.2997 21.4327H8.62969C7.83404 21.4327 7.07098 21.1166 6.50837 20.554C5.94576 19.9914 5.62969 19.2283 5.62969 18.4327V14.1427C5.62969 13.347 5.94576 12.584 6.50837 12.0214C7.07098 11.4588 7.83404 11.1427 8.62969 11.1427H16.2697C16.6678 11.136 17.0633 11.2087 17.4331 11.3565C17.8029 11.5043 18.1395 11.7242 18.4234 12.0035C18.7073 12.2827 18.9328 12.6157 19.0866 12.983C19.2405 13.3502 19.3197 13.7445 19.3197 14.1427L19.3497 18.4327Z" fill="#F9F9F9"/>
<path d="M12.4902 14.4226C12.2921 14.4252 12.1029 14.505 11.9628 14.6451C11.8227 14.7852 11.7428 14.9745 11.7402 15.1726V17.3926C11.7402 17.5915 11.8193 17.7823 11.9599 17.9229C12.1006 18.0636 12.2913 18.1426 12.4902 18.1426C12.6891 18.1426 12.8799 18.0636 13.0206 17.9229C13.1612 17.7823 13.2402 17.5915 13.2402 17.3926V15.1726C13.2402 14.9737 13.1612 14.7829 13.0206 14.6423C12.8799 14.5016 12.6891 14.4226 12.4902 14.4226Z" fill="#F9F9F9"/>
</svg>
