<svg width="25" height="25" viewBox="0 0 25 25" fill="none" xmlns="http://www.w3.org/2000/svg">
<path d="M12.4996 16.8725C10.2996 16.8725 8.59961 15.0725 8.59961 12.9725C8.59961 10.8725 10.2996 9.07251 12.4996 9.07251C14.6996 9.07251 16.3996 10.8725 16.3996 12.9725C16.3996 15.0725 14.6996 16.8725 12.4996 16.8725ZM12.4996 10.5725C11.1996 10.5725 10.0996 11.6725 10.0996 12.9725C10.0996 14.2725 11.1996 15.3725 12.4996 15.3725C13.7996 15.3725 14.8996 14.2725 14.8996 12.9725C14.8996 11.6725 13.7996 10.5725 12.4996 10.5725Z" fill="#F9F9F9"/>
<path d="M12.5004 21.0726C8.40039 21.0726 4.60039 18.1726 2.60039 13.2726C2.50039 13.0726 2.50039 12.8726 2.60039 12.6726C4.60039 7.77256 8.40039 4.97256 12.5004 4.87256C16.6004 4.87256 20.4004 7.77256 22.4004 12.6726C22.5004 12.8726 22.5004 13.0726 22.4004 13.2726C20.4004 18.1726 16.6004 20.9726 12.5004 21.0726ZM4.10039 12.9726C6.00039 17.0726 9.10039 19.5726 12.5004 19.5726C15.9004 19.5726 19.1004 17.1726 20.9004 12.9726C19.0004 8.87256 15.9004 6.37256 12.5004 6.37256C9.10039 6.37256 5.90039 8.87256 4.10039 12.9726Z" fill="#F9F9F9"/>
</svg>
