<svg width="24" height="25" viewBox="0 0 24 25" fill="none" xmlns="http://www.w3.org/2000/svg">
<path d="M21.3018 3.58051C21.068 3.59077 20.8404 3.65584 20.6352 3.73801C20.4321 3.81964 19.2627 4.31876 17.5358 5.05708C15.8089 5.79539 13.5642 6.75684 11.3389 7.7102C6.8885 9.61693 2.51519 11.493 2.51519 11.493L2.54706 11.4808C2.54706 11.4808 2.28311 11.5691 2.0155 11.7555C1.8817 11.8487 1.73774 11.9691 1.61988 12.1446C1.50201 12.32 1.41584 12.5687 1.44831 12.8318C1.56237 13.7556 2.51988 14.0177 2.51988 14.0177L2.52363 14.0196L6.79675 15.4821C6.9057 15.8455 8.09281 19.8077 8.35394 20.6468C8.49816 21.1107 8.63314 21.3783 8.77394 21.5608C8.8444 21.6522 8.91824 21.7229 8.99988 21.7746C9.03231 21.7951 9.06643 21.8105 9.10019 21.8243H9.10206C9.10621 21.8261 9.11011 21.8263 9.11425 21.828L9.103 21.8252C9.11084 21.8284 9.11859 21.8337 9.12644 21.8365C9.14167 21.8418 9.15101 21.8416 9.1705 21.8458C9.65988 22.0167 10.0649 21.6996 10.0649 21.6996L10.0818 21.6865L12.7068 19.2518L16.9668 22.5733L17.0202 22.5977C17.7658 22.9288 18.4402 22.7441 18.8136 22.4402C19.1871 22.1363 19.3339 21.7446 19.3339 21.7446L19.3499 21.7033L22.4802 5.38801C22.5603 5.023 22.5717 4.70749 22.4961 4.42239C22.4206 4.13728 22.237 3.88945 22.0068 3.75208C21.7765 3.61471 21.5355 3.57026 21.3018 3.58051ZM21.3271 4.55645C21.422 4.55205 21.4924 4.56291 21.5146 4.57614C21.5367 4.58937 21.5467 4.58763 21.568 4.66801C21.5893 4.7484 21.6008 4.91771 21.5427 5.1827L21.5408 5.18833L18.4283 21.409C18.4209 21.4253 18.3561 21.5753 18.208 21.6958C18.0569 21.8188 17.8889 21.9147 17.443 21.7277L12.7846 18.0949L12.6533 17.9918L12.6505 17.9946L11.2574 16.9493L19.0864 7.73833C19.1466 7.66773 19.185 7.58122 19.1971 7.48926C19.2091 7.3973 19.1942 7.30381 19.1543 7.22012C19.1143 7.13642 19.0509 7.06609 18.9719 7.01764C18.8928 6.96918 18.8013 6.94467 18.7086 6.94708C18.618 6.94943 18.5299 6.97738 18.4546 7.0277L7.12581 14.5802L2.84613 13.1149C2.84613 13.1149 2.42115 12.8784 2.40081 12.7136C2.39969 12.7045 2.39467 12.7128 2.41675 12.6799C2.43883 12.647 2.49434 12.5915 2.56394 12.543C2.70313 12.446 2.86206 12.3874 2.86206 12.3874L2.878 12.3818L2.89394 12.3752C2.89394 12.3752 7.26748 10.499 11.7177 8.59239C13.9428 7.63907 16.1872 6.67833 17.9136 5.9402C19.6396 5.20226 20.8868 4.67109 20.9924 4.62864C21.1126 4.5805 21.2321 4.56085 21.3271 4.55645ZM16.1352 9.7277L10.198 16.713L10.1952 16.7158C10.1859 16.727 10.1772 16.7386 10.1689 16.7505C10.1595 16.7635 10.1508 16.777 10.1427 16.7908C10.1093 16.8474 10.088 16.9103 10.0799 16.9755C10.0799 16.9768 10.0799 16.978 10.0799 16.9793L9.30644 20.4574C9.29358 20.4198 9.28458 20.4061 9.27081 20.3618V20.3608C9.02516 19.5715 7.90515 15.8348 7.75019 15.318L16.1352 9.7277ZM10.8683 17.8577L11.9352 18.6583L10.3677 20.1115L10.8683 17.8577Z" fill="#EDEDED"/>
</svg>
