<svg width="24" height="25" viewBox="0 0 24 25" fill="none" xmlns="http://www.w3.org/2000/svg">
<g clip-path="url(#clip0_1952_48232)">
<path d="M16.425 3.33203C13.5543 3.33203 11.22 5.66641 11.22 8.53703C11.22 8.70953 11.2631 8.87828 11.28 9.04703C7.73059 8.70766 4.59184 6.99766 2.45996 4.38203C2.36059 4.25641 2.20684 4.18891 2.04559 4.20016C1.88621 4.21141 1.74371 4.30328 1.66496 4.44203C1.21684 5.21266 0.959962 6.09953 0.959962 7.05203C0.959962 8.20516 1.37246 9.26078 2.00996 10.127C1.88621 10.0727 1.75121 10.0427 1.63496 9.97703C1.48684 9.89828 1.30871 9.90203 1.16434 9.98828C1.01996 10.0745 0.931837 10.2302 0.929962 10.397V10.457C0.929962 12.2252 1.84496 13.7608 3.19496 14.702C3.17996 14.7002 3.16496 14.7058 3.14996 14.702C2.98496 14.6739 2.81809 14.732 2.70746 14.8577C2.59684 14.9833 2.56121 15.1577 2.60996 15.317C3.14621 16.9839 4.51496 18.257 6.20996 18.722C4.85996 19.5245 3.29434 19.997 1.60496 19.997C1.23934 19.997 0.888712 19.9783 0.539962 19.937C0.314962 19.907 0.0993369 20.0383 0.0243371 20.252C-0.052538 20.4658 0.0318371 20.7039 0.224962 20.822C2.39059 22.2114 4.96121 23.027 7.72496 23.027C12.2043 23.027 15.7181 21.1558 18.075 18.482C20.4318 15.8083 21.66 12.3358 21.66 9.09203C21.66 8.95516 21.6487 8.82203 21.645 8.68703C22.5243 8.01391 23.31 7.22453 23.925 6.30203C24.0468 6.12391 24.0337 5.88578 23.8931 5.72078C23.7543 5.55578 23.52 5.50516 23.325 5.59703C23.0775 5.70766 22.7887 5.71891 22.53 5.80703C22.8712 5.35141 23.1637 4.86016 23.34 4.30703C23.4 4.11766 23.3343 3.90953 23.1787 3.78578C23.0231 3.66391 22.8056 3.64891 22.635 3.75203C21.8156 4.23766 20.9081 4.57891 19.95 4.78703C19.02 3.91703 17.7956 3.33203 16.425 3.33203ZM16.425 4.29203C17.6493 4.29203 18.7556 4.81516 19.53 5.64203C19.6462 5.76203 19.8168 5.81266 19.98 5.77703C20.6062 5.65328 21.2006 5.47141 21.78 5.23703C21.4462 5.68703 21.0337 6.07141 20.55 6.36203C20.3306 6.46891 20.2275 6.72203 20.3081 6.95266C20.3868 7.18141 20.6268 7.31453 20.865 7.26203C21.345 7.20391 21.7725 7.00891 22.23 6.88703C21.8193 7.33141 21.3693 7.73266 20.88 8.08703C20.7468 8.18453 20.6737 8.34203 20.685 8.50703C20.6925 8.70203 20.7 8.89516 20.7 9.09203C20.7 12.092 19.5487 15.3489 17.355 17.837C15.1612 20.3252 11.94 22.067 7.72496 22.067C5.81059 22.067 4.00309 21.6433 2.36996 20.897C4.39496 20.7414 6.26246 20.0252 7.76996 18.842C7.92746 18.7164 7.98934 18.5064 7.92559 18.3152C7.86184 18.1239 7.68559 17.9927 7.48496 17.987C5.90246 17.9589 4.57684 17.0383 3.86996 15.737C3.89621 15.737 3.91871 15.737 3.94496 15.737C4.41934 15.737 4.88809 15.677 5.32496 15.557C5.53496 15.4952 5.67934 15.3002 5.67184 15.0808C5.66434 14.8614 5.50871 14.6739 5.29496 14.627C3.58684 14.282 2.30621 12.8908 2.00996 11.162C2.49371 11.3289 2.98871 11.4602 3.52496 11.477C3.74434 11.4902 3.94309 11.3533 4.01059 11.1452C4.07809 10.937 3.99559 10.7083 3.80996 10.592C2.66996 9.82891 1.91996 8.52953 1.91996 7.05203C1.91996 6.50453 2.06246 6.00203 2.24996 5.52203C4.64996 8.15641 8.00996 9.90578 11.805 10.097C11.955 10.1045 12.1012 10.0427 12.1987 9.92828C12.2962 9.81203 12.3337 9.65828 12.3 9.51203C12.2268 9.20078 12.18 8.87078 12.18 8.53703C12.18 6.18578 14.0737 4.29203 16.425 4.29203Z" fill="#EDEDED"/>
</g>
<defs>
<clipPath id="clip0_1952_48232">
<rect width="24" height="24" fill="white" transform="translate(0 0.707031)"/>
</clipPath>
</defs>
</svg>
